<?xml version="1.0" encoding="utf-8"?>
<!-- Generator: Adobe Illustrator 16.0.0, SVG Export Plug-In . SVG Version: 6.00 Build 0)  -->
<!DOCTYPE svg PUBLIC "-//W3C//DTD SVG 1.1//EN" "http://www.w3.org/Graphics/SVG/1.1/DTD/svg11.dtd">
<svg version="1.1" id="AjRepro_x5F_Logo" xmlns="http://www.w3.org/2000/svg" xmlns:xlink="http://www.w3.org/1999/xlink" x="0px"
	 y="0px" width="498.697px" height="112.51px" viewBox="0 0 498.697 112.51" enable-background="new 0 0 498.697 112.51"
	 xml:space="preserve">
<g id="RGB">
	<g id="Repro">
		<path d="M482.493,73.171c1.332,1.486,3.729,2.23,7.193,2.23c1.971,0,3.604-0.318,4.9-0.953c1.295-0.637,2.307-1.566,3.027-2.797
			c0.721-1.229,1.082-2.572,1.082-4.029c0-1.236-0.271-2.357-0.813-3.359c-0.543-1.002-1.404-1.844-2.598-2.52
			c-1.189-0.676-3.16-1.348-5.908-2.008c-1.109-0.258-1.814-0.537-2.109-0.836c-0.309-0.289-0.457-0.615-0.457-0.977
			c0-0.496,0.184-0.916,0.555-1.263c0.369-0.347,0.922-0.521,1.65-0.521c0.891,0,1.586,0.232,2.092,0.698
			c0.504,0.467,0.834,1.209,0.992,2.232l5.93-0.389c-0.258-2.355-1.07-4.072-2.438-5.152s-3.35-1.619-5.949-1.619
			c-2.121,0-3.789,0.297-5.008,0.892c-1.219,0.594-2.131,1.409-2.736,2.447s-0.908,2.141-0.908,3.311
			c0,1.775,0.592,3.236,1.777,4.385c1.176,1.146,3.145,2.066,5.9,2.758c1.688,0.414,2.76,0.854,3.223,1.316
			c0.465,0.465,0.695,0.992,0.695,1.582c0,0.619-0.244,1.164-0.729,1.635c-0.486,0.469-1.182,0.705-2.076,0.705
			c-1.205,0-2.131-0.459-2.779-1.379c-0.396-0.568-0.66-1.396-0.791-2.48l-5.982,0.418
			C480.405,69.792,481.159,71.683,482.493,73.171z"/>
		<path d="M471.417,69.003c-0.617,0.756-1.525,1.133-2.729,1.133c-1.242,0-2.203-0.469-2.891-1.402
			c-0.686-0.932-1.025-2.658-1.025-5.176c0-2.033,0.285-3.523,0.859-4.475c0.76-1.277,1.854-1.918,3.275-1.918
			c0.631,0,1.199,0.146,1.709,0.434c0.51,0.291,0.939,0.705,1.293,1.24c0.211,0.32,0.414,0.826,0.609,1.52l5.557-1.379
			c-0.715-2.397-1.805-4.174-3.271-5.333c-1.469-1.156-3.482-1.734-6.049-1.734c-3.275,0-5.813,1.009-7.604,3.027
			c-1.791,2.018-2.689,4.907-2.689,8.665c0,2.816,0.51,5.131,1.527,6.938c1.02,1.807,2.229,3.068,3.631,3.785
			c1.404,0.717,3.211,1.076,5.424,1.076c1.824,0,3.326-0.293,4.506-0.883c1.184-0.588,2.17-1.461,2.969-2.619
			c0.795-1.156,1.379-2.598,1.748-4.322l-5.516-1.859C472.479,67.153,472.032,68.249,471.417,69.003z"/>
		<path d="M448.384,75.015h6.309V52.299h-6.309V75.015z"/>
		<path d="M424.472,75.015h6.289v-9.189h6.875v9.189h6.32V52.299h-6.32v7.95h-6.875v-7.95h-6.289V75.015z"/>
		<path d="M403.876,75.015h6.318v-8.432h3.441c2.537,0,4.426-0.645,5.66-1.936c1.236-1.291,1.854-3.084,1.854-5.377
			c0-2.232-0.566-3.952-1.701-5.161c-1.133-1.208-2.838-1.813-5.117-1.813h-10.457v22.718H403.876z M410.194,56.917h1.791
			c1.176,0,1.977,0.248,2.4,0.744c0.43,0.496,0.641,1.102,0.641,1.813c0,0.732-0.244,1.334-0.734,1.807
			c-0.492,0.469-1.342,0.705-2.557,0.705h-1.541V56.917L410.194,56.917z"/>
		<path d="M395.315,75.015h6.588l-7.65-22.715h-6.859l-7.652,22.715h6.424l0.992-3.75h7.141L395.315,75.015z M388.521,66.353
			l2.225-8.166l2.246,8.166H388.521z"/>
		<path d="M366.06,75.015v-9.221h0.555c0.574,0,1.09,0.176,1.543,0.527c0.332,0.27,0.713,0.852,1.139,1.75l3.363,6.941h7.107
			l-3.049-6.582c-0.146-0.332-0.439-0.803-0.881-1.412c-0.438-0.609-0.773-1.008-1.006-1.193c-0.344-0.279-0.889-0.559-1.639-0.838
			c0.936-0.238,1.674-0.537,2.211-0.898c0.842-0.568,1.504-1.309,1.986-2.223c0.48-0.916,0.723-2.002,0.723-3.262
			c0-1.447-0.314-2.674-0.945-3.68c-0.629-1.008-1.457-1.697-2.482-2.068c-1.029-0.372-2.516-0.559-4.459-0.559h-10.484v22.717
			H366.06L366.06,75.015z M366.06,56.886h2.764c1.146,0,1.93,0.197,2.348,0.59c0.416,0.393,0.625,0.957,0.625,1.688
			c0,0.496-0.133,0.938-0.396,1.316c-0.266,0.383-0.604,0.621-1.021,0.715c-0.824,0.205-1.379,0.309-1.666,0.309h-2.65v-4.617
			H366.06z"/>
		<path d="M350.409,66.788v2.139c-0.824,0.547-1.557,0.936-2.195,1.16c-0.637,0.229-1.311,0.344-2.014,0.344
			c-1.48,0-2.635-0.527-3.465-1.582c-0.828-1.055-1.242-2.811-1.242-5.27c0-2.313,0.41-4.004,1.229-5.074s1.918-1.604,3.299-1.604
			c0.926,0,1.688,0.227,2.283,0.682c0.6,0.455,1.021,1.111,1.271,1.969l6.07-1.209c-0.371-1.469-0.928-2.679-1.66-3.634
			c-0.736-0.956-1.662-1.661-2.777-2.114c-1.117-0.455-2.799-0.683-5.049-0.683c-2.334,0-4.189,0.367-5.568,1.101
			c-1.77,0.949-3.109,2.342-4.025,4.176c-0.918,1.832-1.375,3.99-1.375,6.469c0,2.354,0.418,4.439,1.256,6.26
			s2.02,3.188,3.541,4.105c1.521,0.92,3.494,1.379,5.91,1.379c1.963,0,3.656-0.256,5.09-0.768c1.43-0.512,3.076-1.475,4.938-2.891
			V62.06h-9.723v4.727L350.409,66.788L350.409,66.788z"/>
		<path d="M311.544,70.306c0.996,1.768,2.293,3.059,3.895,3.875c1.602,0.814,3.623,1.223,6.064,1.223
			c2.402,0,4.408-0.471,6.021-1.416c1.609-0.945,2.842-2.268,3.691-3.967c0.854-1.699,1.277-3.877,1.277-6.533
			c0-3.656-0.975-6.5-2.924-8.529c-1.951-2.028-4.73-3.045-8.334-3.045c-3.518,0-6.258,1.033-8.229,3.099
			c-1.971,2.067-2.955,4.956-2.955,8.663C310.052,66.327,310.55,68.538,311.544,70.306z M317.972,58.729
			c0.816-1.002,1.9-1.502,3.25-1.502c1.408,0,2.523,0.494,3.348,1.479c0.822,0.986,1.232,2.549,1.232,4.688
			c0,2.541-0.395,4.303-1.182,5.283c-0.789,0.982-1.902,1.475-3.34,1.475c-1.398,0-2.504-0.502-3.316-1.504
			s-1.219-2.648-1.219-4.943C316.745,61.39,317.153,59.731,317.972,58.729z"/>
		<path d="M294.688,75.015v-9.221h0.59c0.609,0,1.158,0.176,1.641,0.527c0.354,0.27,0.758,0.852,1.211,1.75l3.576,6.941h7.564
			l-3.242-6.582c-0.156-0.332-0.469-0.803-0.938-1.412s-0.824-1.008-1.07-1.193c-0.363-0.279-0.945-0.559-1.742-0.838
			c0.996-0.238,1.779-0.537,2.352-0.898c0.896-0.568,1.604-1.309,2.113-2.223c0.514-0.916,0.77-2.002,0.77-3.262
			c0-1.447-0.336-2.674-1.006-3.68c-0.668-1.008-1.551-1.697-2.645-2.068c-1.092-0.372-2.674-0.559-4.742-0.559h-11.154v22.717
			H294.688L294.688,75.015z M294.688,56.886h2.938c1.221,0,2.053,0.197,2.496,0.59s0.664,0.957,0.664,1.688
			c0,0.496-0.139,0.938-0.42,1.316c-0.281,0.383-0.643,0.621-1.086,0.715c-0.877,0.205-1.467,0.309-1.773,0.309h-2.818V56.886z"/>
		<path d="M265.997,75.015h6.723v-8.432h3.662c2.699,0,4.707-0.645,6.021-1.936s1.973-3.084,1.973-5.377
			c0-2.232-0.604-3.952-1.809-5.161c-1.207-1.208-3.021-1.813-5.445-1.813h-11.125V75.015L265.997,75.015z M272.72,56.917h1.904
			c1.252,0,2.105,0.248,2.557,0.744c0.453,0.496,0.682,1.102,0.682,1.813c0,0.732-0.262,1.334-0.783,1.807
			c-0.521,0.469-1.428,0.705-2.719,0.705h-1.641V56.917L272.72,56.917z"/>
		<path d="M244.161,75.015h18.26v-5.146h-11.555v-4.477h10.416v-4.633h-10.416v-3.611h11.229v-4.85h-17.934V75.015z"/>
		<path d="M227.452,75.015v-9.221h0.591c0.61,0,1.157,0.176,1.641,0.527c0.354,0.27,0.759,0.852,1.211,1.75l3.578,6.941h7.562
			l-3.241-6.582c-0.158-0.332-0.47-0.803-0.938-1.412c-0.467-0.609-0.824-1.008-1.07-1.193c-0.364-0.279-0.945-0.559-1.742-0.838
			c0.996-0.238,1.779-0.537,2.35-0.898c0.896-0.568,1.603-1.309,2.115-2.223c0.512-0.916,0.769-2.002,0.769-3.262
			c0-1.447-0.335-2.674-1.005-3.68c-0.67-1.008-1.551-1.697-2.645-2.068c-1.093-0.372-2.674-0.559-4.742-0.559H220.73v22.717
			H227.452L227.452,75.015z M227.452,56.886h2.94c1.221,0,2.054,0.197,2.496,0.59c0.443,0.393,0.666,0.957,0.666,1.688
			c0,0.496-0.141,0.938-0.42,1.316c-0.281,0.383-0.644,0.621-1.086,0.715c-0.878,0.205-1.469,0.309-1.773,0.309h-2.822
			L227.452,56.886L227.452,56.886z"/>
	</g>
	<path fill="#888888" d="M126.824,112.511c8.002,0,15.671-0.508,23.01-1.52c6.658-0.91,13.088-2.277,19.293-4.1
		c4.597-1.316,8.656-2.859,12.177-4.631c2.865-1.469,5.385-3.139,7.562-5.012c2.368-1.975,4.468-4.402,6.301-7.287
		c2.004-3.188,4.454-9.084,7.351-17.688c3.75-11.188,7.558-21.738,11.42-31.658l13.697-33.556
		c-12.961,0.103-22.105,0.152-27.438,0.152c-4.283,0-12.874-0.05-25.772-0.152l-2.656,8.882
		c-2.769,9.262-6.462,20.232-11.075,32.911c-4.613,12.678-8.454,21.575-11.517,26.684c-1.738,2.834-4.178,5.313-7.319,7.439
		c-2.315,1.52-5.233,2.76-8.755,3.721c-4.651,1.215-9.685,1.82-15.102,1.82c-4.852,0-9.976-0.379-15.369-1.139
		c-5.396-0.758-12.335-2.227-20.822-4.402c-1.334,8.25-2.932,16.701-4.791,25.355C95.427,111.116,112.028,112.511,126.824,112.511
		L126.824,112.511z"/>
	<path fill="#ED1F24" d="M130.992,0H97.388L0,110.687h45.491l13.539-16.475h54.468l3.323,16.475h45.37L130.992,0z M78.07,71.515
		l24.721-29.532l6.091,29.532H78.07z"/>
</g>
</svg>
