<?xml version="1.0" encoding="utf-8"?>
<!-- Generator: Adobe Illustrator 16.0.0, SVG Export Plug-In . SVG Version: 6.00 Build 0)  -->
<!DOCTYPE svg PUBLIC "-//W3C//DTD SVG 1.1//EN" "http://www.w3.org/Graphics/SVG/1.1/DTD/svg11.dtd">
<svg version="1.1" id="Facebook_3_" xmlns="http://www.w3.org/2000/svg" xmlns:xlink="http://www.w3.org/1999/xlink" x="0px"
	 y="0px" width="258.146px" height="249.349px" viewBox="0 0 258.146 249.349" enable-background="new 0 0 258.146 249.349"
	 xml:space="preserve">
<g>
	<linearGradient id="SVGID_1_" gradientUnits="userSpaceOnUse" x1="239.854" y1="-7.3467" x2="18.2928" y2="256.6996">
		<stop  offset="0" style="stop-color:#3E5B99"/>
		<stop  offset="1" style="stop-color:#2C4983"/>
	</linearGradient>
	<path fill="url(#SVGID_1_)" d="M242.955,0c8.359,0,15.191,6.596,15.191,14.664v220.027c0,8.062-6.832,14.657-15.191,14.657H15.176
		C6.833,249.349,0,242.753,0,234.691V14.664C0,6.596,6.833,0,15.176,0H242.955z"/>
</g>
<path id="Facebook_2_" fill="#2C4A86" d="M112.234,100.503c0,3.535,0,19.292,0,19.292H98.101v23.593h14.133v64.742h29.035v-64.742
	h19.481c0,0,1.829-11.315,2.708-23.678c-2.538,0-22.082,0-22.082,0s0-13.727,0-16.138c0-2.41,3.166-5.657,6.297-5.657
	c3.124,0,9.712,0,15.819,0c0-3.209,0-14.301,0-24.555c-8.154,0-17.424,0-21.508,0C111.518,73.36,112.234,96.977,112.234,100.503z"/>
<path id="Facebook_1_" fill="#FFFFFF" d="M108.79,97.488c0,3.526,0,19.292,0,19.292H94.652v23.593h14.138v64.742h29.034v-64.742
	h19.481c0,0,1.825-11.316,2.709-23.687c-2.539,0-22.082,0-22.082,0s0-13.719,0-16.121c0-2.41,3.166-5.658,6.297-5.658
	c3.12,0,9.716,0,15.815,0c0-3.217,0-14.308,0-24.562c-8.146,0-17.42,0-21.508,0C108.068,70.346,108.79,93.962,108.79,97.488z"/>
</svg>
