<?xml version="1.0" encoding="utf-8"?>
<!-- Generator: Adobe Illustrator 16.0.0, SVG Export Plug-In . SVG Version: 6.00 Build 0)  -->
<!DOCTYPE svg PUBLIC "-//W3C//DTD SVG 1.1//EN" "http://www.w3.org/Graphics/SVG/1.1/DTD/svg11.dtd">
<svg version="1.1" id="Twitter_1_" xmlns="http://www.w3.org/2000/svg" xmlns:xlink="http://www.w3.org/1999/xlink" x="0px" y="0px"
	 width="258.146px" height="249.349px" viewBox="0 0 258.146 249.349" enable-background="new 0 0 258.146 249.349"
	 xml:space="preserve">
<g>
	<linearGradient id="SVGID_1_" gradientUnits="userSpaceOnUse" x1="239.8525" y1="-7.3477" x2="18.291" y2="256.6991">
		<stop  offset="0" style="stop-color:#38A1D9"/>
		<stop  offset="0.9636" style="stop-color:#156CB4"/>
	</linearGradient>
	<path fill="url(#SVGID_1_)" d="M242.954,0c8.359,0,15.191,6.596,15.191,14.664v220.027c0,8.062-6.832,14.657-15.191,14.657H15.176
		C6.828,249.349,0,242.753,0,234.691V14.664C0,6.596,6.828,0,15.176,0H242.954z"/>
</g>
<path fill="#3388C6" d="M206.379,89.567c-5.345,2.363-11.088,3.976-17.122,4.696c6.154-3.689,10.883-9.533,13.107-16.493
	c-5.76,3.418-12.135,5.898-18.924,7.239c-5.438-5.798-13.18-9.417-21.757-9.417c-16.458,0-29.797,13.347-29.797,29.802
	c0,2.332,0.263,4.611,0.767,6.789c-24.764-1.24-46.725-13.106-61.424-31.135c-2.565,4.402-4.034,9.518-4.034,14.982
	c0,10.34,5.259,19.454,13.257,24.803c-4.883-0.155-9.483-1.496-13.498-3.729c-0.004,0.124-0.004,0.256-0.004,0.38
	c0,14.432,10.27,26.477,23.903,29.22c-2.495,0.675-5.131,1.047-7.848,1.047c-1.918,0-3.786-0.187-5.607-0.535
	c3.79,11.836,14.796,20.454,27.841,20.694c-10.2,7.991-23.051,12.758-37.018,12.758c-2.403,0-4.774-0.14-7.107-0.41
	c13.192,8.448,28.856,13.385,45.683,13.385c54.821,0,84.793-45.411,84.793-84.793c0-1.294-0.026-2.581-0.085-3.852
	C197.33,100.79,202.379,95.543,206.379,89.567z"/>
<path fill="#FFFFFF" d="M203.487,87.087c-5.344,2.379-11.087,3.976-17.117,4.705c6.15-3.689,10.878-9.534,13.103-16.494
	c-5.759,3.41-12.138,5.898-18.923,7.231c-5.438-5.79-13.181-9.409-21.753-9.409c-16.463,0-29.802,13.339-29.802,29.802
	c0,2.341,0.264,4.611,0.768,6.789c-24.764-1.24-46.726-13.106-61.425-31.143c-2.565,4.41-4.038,9.526-4.038,14.99
	c0,10.34,5.263,19.462,13.262,24.803c-4.887-0.155-9.479-1.488-13.498-3.729c-0.004,0.124-0.004,0.256-0.004,0.372
	c0,14.447,10.273,26.492,23.903,29.229c-2.496,0.682-5.131,1.046-7.848,1.046c-1.922,0-3.786-0.186-5.607-0.535
	c3.794,11.836,14.796,20.454,27.841,20.695c-10.2,7.99-23.051,12.757-37.014,12.757c-2.406,0-4.778-0.139-7.111-0.418
	c13.192,8.456,28.856,13.394,45.683,13.394c54.821,0,84.797-45.412,84.797-84.794c0-1.294-0.027-2.58-0.085-3.859
	C194.442,98.317,199.488,93.07,203.487,87.087z"/>
</svg>
